<?xml version="1.0" encoding="UTF-8" standalone="no"?>
<svg
   xmlns:dc="http://purl.org/dc/elements/1.1/"
   xmlns:cc="http://creativecommons.org/ns#"
   xmlns:rdf="http://www.w3.org/1999/02/22-rdf-syntax-ns#"
   xmlns:svg="http://www.w3.org/2000/svg"
   xmlns="http://www.w3.org/2000/svg"
   version="1.1"
   id="svg2"
   xml:space="preserve"
   width="328.05167"
   height="98.321663"
   viewBox="0 0 328.05167 98.321663"><metadata
     id="metadata8"><rdf:RDF><cc:Work
         rdf:about=""><dc:format>image/svg+xml</dc:format><dc:type
           rdf:resource="http://purl.org/dc/dcmitype/StillImage" /><dc:title></dc:title></cc:Work></rdf:RDF></metadata><defs
     id="defs6" /><g
     id="g10"
     transform="matrix(1.3333333,0,0,-1.3333333,0,98.321665)"><g
       id="g12"><g
         id="g14"
         transform="matrix(1,0,0,0.988713,0,73.741249)"><path
           d="M 34.609,-0.411 23.434,-26.739 15.184,-46.177 H 8.512 0.121 l 14.645,19.438 z"
           style="fill:#000000;fill-opacity:1;fill-rule:nonzero;stroke:#000000;stroke-width:0.242524;stroke-linecap:butt;stroke-linejoin:miter;stroke-miterlimit:10.433;stroke-dasharray:none;stroke-opacity:1"
           id="path16" /></g><g
         id="g18"
         transform="matrix(1,0,0,0.988713,0,73.741249)"><path
           d="M 2.363,-36.723 H 3.344 L 1.496,-39.177 H 1.324 Z"
           style="fill:#000000;fill-opacity:1;fill-rule:nonzero;stroke:#000000;stroke-width:0.242524;stroke-linecap:butt;stroke-linejoin:miter;stroke-miterlimit:10.433;stroke-dasharray:none;stroke-opacity:1"
           id="path20" /></g><g
         id="g22"
         transform="matrix(1,0,0,0.988713,0,73.741249)"><path
           d="M 3.773,-33.393 H 5.848 L 4.133,-35.672 H 2.809 Z"
           style="fill:#000000;fill-opacity:1;fill-rule:nonzero;stroke:#000000;stroke-width:0.242524;stroke-linecap:butt;stroke-linejoin:miter;stroke-miterlimit:10.433;stroke-dasharray:none;stroke-opacity:1"
           id="path24" /></g><g
         id="g26"
         transform="matrix(1,0,0,0.988713,0,73.741249)"><path
           d="M 5.188,-30.07 H 8.355 L 6.773,-32.172 H 4.297 Z"
           style="fill:#000000;fill-opacity:1;fill-rule:nonzero;stroke:#000000;stroke-width:0.242524;stroke-linecap:butt;stroke-linejoin:miter;stroke-miterlimit:10.433;stroke-dasharray:none;stroke-opacity:1"
           id="path28" /></g><g
         id="g30"
         transform="matrix(1,0,0,0.988713,0,73.741249)"><path
           d="m 6.598,-26.739 h 4.269 L 9.414,-28.667 H 5.781 Z"
           style="fill:#000000;fill-opacity:1;fill-rule:nonzero;stroke:#000000;stroke-width:0.242524;stroke-linecap:butt;stroke-linejoin:miter;stroke-miterlimit:10.433;stroke-dasharray:none;stroke-opacity:1"
           id="path32" /></g><g
         id="g34"
         transform="matrix(1,0,0,0.988713,0,73.741249)"><path
           d="m 8.016,-23.413 h 5.355 l -1.316,-1.754 H 7.27 Z"
           style="fill:#000000;fill-opacity:1;fill-rule:nonzero;stroke:#000000;stroke-width:0.242524;stroke-linecap:butt;stroke-linejoin:miter;stroke-miterlimit:10.433;stroke-dasharray:none;stroke-opacity:1"
           id="path36" /></g><g
         id="g38"
         transform="matrix(1,0,0,0.988713,0,73.741249)"><path
           d="m 9.426,-20.086 h 6.453 l -1.188,-1.576 H 8.758 Z"
           style="fill:#000000;fill-opacity:1;fill-rule:nonzero;stroke:#000000;stroke-width:0.242524;stroke-linecap:butt;stroke-linejoin:miter;stroke-miterlimit:10.433;stroke-dasharray:none;stroke-opacity:1"
           id="path40" /></g><g
         id="g42"
         transform="matrix(1,0,0,0.988713,0,73.741249)"><path
           d="m 10.84,-16.759 h 7.547 l -1.055,-1.399 h -7.09 z"
           style="fill:#000000;fill-opacity:1;fill-rule:nonzero;stroke:#000000;stroke-width:0.242524;stroke-linecap:butt;stroke-linejoin:miter;stroke-miterlimit:10.433;stroke-dasharray:none;stroke-opacity:1"
           id="path44" /></g><g
         id="g46"
         transform="matrix(1,0,0,0.988713,0,73.741249)"><path
           d="m 12.254,-13.429 h 8.644 l -0.925,-1.229 H 11.73 Z"
           style="fill:#000000;fill-opacity:1;fill-rule:nonzero;stroke:#000000;stroke-width:0.242524;stroke-linecap:butt;stroke-linejoin:miter;stroke-miterlimit:10.433;stroke-dasharray:none;stroke-opacity:1"
           id="path48" /></g><g
         id="g50"
         transform="matrix(1,0,0,0.988713,0,73.741249)"><path
           d="m 13.664,-10.106 h 9.738 l -0.789,-1.047 h -9.394 z"
           style="fill:#000000;fill-opacity:1;fill-rule:nonzero;stroke:#000000;stroke-width:0.242524;stroke-linecap:butt;stroke-linejoin:miter;stroke-miterlimit:10.433;stroke-dasharray:none;stroke-opacity:1"
           id="path52" /></g><g
         id="g54"
         transform="matrix(1,0,0,0.988713,0,73.741249)"><path
           d="M 15.078,-6.776 H 25.91 L 25.246,-7.653 H 14.703 Z"
           style="fill:#000000;fill-opacity:1;fill-rule:nonzero;stroke:#000000;stroke-width:0.242524;stroke-linecap:butt;stroke-linejoin:miter;stroke-miterlimit:10.433;stroke-dasharray:none;stroke-opacity:1"
           id="path56" /></g><g
         id="g58"
         transform="matrix(1,0,0,0.988713,0,73.741249)"><path
           d="m 16.488,-3.445 h 11.93 L 27.887,-4.148 H 16.191 Z"
           style="fill:#000000;fill-opacity:1;fill-rule:nonzero;stroke:#000000;stroke-width:0.242524;stroke-linecap:butt;stroke-linejoin:miter;stroke-miterlimit:10.433;stroke-dasharray:none;stroke-opacity:1"
           id="path60" /></g><g
         id="g62"
         transform="matrix(1,0,0,0.988713,0,73.741249)"><path
           d="m 17.902,-0.122 h 13.02 L 30.527,-0.648 H 17.68 Z"
           style="fill:#000000;fill-opacity:1;fill-rule:nonzero;stroke:#000000;stroke-width:0.242524;stroke-linecap:butt;stroke-linejoin:miter;stroke-miterlimit:10.433;stroke-dasharray:none;stroke-opacity:1"
           id="path64" /></g><g
         id="g66"
         transform="matrix(1,0,0,0.988713,0,73.741249)"><path
           d="m 25.336,-43.376 h 8.941 l -2.109,-2.801 h -8.023 z"
           style="fill:#000000;fill-opacity:1;fill-rule:nonzero;stroke:#000000;stroke-width:0.242524;stroke-linecap:butt;stroke-linejoin:miter;stroke-miterlimit:10.433;stroke-dasharray:none;stroke-opacity:1"
           id="path68" /></g><g
         id="g70"
         transform="matrix(1,0,0,0.988713,0,73.741249)"><path
           d="m 26.746,-40.054 h 10.039 l -1.98,-2.619 h -9.172 z"
           style="fill:#000000;fill-opacity:1;fill-rule:nonzero;stroke:#000000;stroke-width:0.242524;stroke-linecap:butt;stroke-linejoin:miter;stroke-miterlimit:10.433;stroke-dasharray:none;stroke-opacity:1"
           id="path72" /></g><g
         id="g74"
         transform="matrix(1,0,0,0.988713,0,73.741249)"><path
           d="m 28.16,-36.723 h 11.133 l -1.848,-2.454 H 27.121 Z"
           style="fill:#000000;fill-opacity:1;fill-rule:nonzero;stroke:#000000;stroke-width:0.242524;stroke-linecap:butt;stroke-linejoin:miter;stroke-miterlimit:10.433;stroke-dasharray:none;stroke-opacity:1"
           id="path76" /></g><g
         id="g78"
         transform="matrix(1,0,0,0.988713,0,73.741249)"><path
           d="m 29.57,-33.393 h 12.231 l -1.715,-2.279 H 28.605 Z"
           style="fill:#000000;fill-opacity:1;fill-rule:nonzero;stroke:#000000;stroke-width:0.242524;stroke-linecap:butt;stroke-linejoin:miter;stroke-miterlimit:10.433;stroke-dasharray:none;stroke-opacity:1"
           id="path80" /></g><g
         id="g82"
         transform="matrix(1,0,0,0.988713,0,73.741249)"><path
           d="m 30.984,-30.07 h 13.325 l -1.582,-2.102 H 30.094 Z"
           style="fill:#000000;fill-opacity:1;fill-rule:nonzero;stroke:#000000;stroke-width:0.242524;stroke-linecap:butt;stroke-linejoin:miter;stroke-miterlimit:10.433;stroke-dasharray:none;stroke-opacity:1"
           id="path84" /></g><g
         id="g86"
         transform="matrix(1,0,0,0.988713,0,73.741249)"><path
           d="m 32.398,-26.739 h 14.414 l -1.449,-1.928 H 31.582 Z"
           style="fill:#000000;fill-opacity:1;fill-rule:nonzero;stroke:#000000;stroke-width:0.242524;stroke-linecap:butt;stroke-linejoin:miter;stroke-miterlimit:10.433;stroke-dasharray:none;stroke-opacity:1"
           id="path88" /></g><g
         id="g90"
         transform="matrix(1,0,0,0.988713,0,73.741249)"><path
           d="M 33.809,-23.413 H 48.836 L 48,-25.167 H 33.066 Z"
           style="fill:#000000;fill-opacity:1;fill-rule:nonzero;stroke:#000000;stroke-width:0.242524;stroke-linecap:butt;stroke-linejoin:miter;stroke-miterlimit:10.433;stroke-dasharray:none;stroke-opacity:1"
           id="path92" /></g><g
         id="g94"
         transform="matrix(1,0,0,0.988713,0,73.741249)"><path
           d="m 35.223,-20.086 h 15.023 l -0.664,-1.576 H 34.555 Z"
           style="fill:#000000;fill-opacity:1;fill-rule:nonzero;stroke:#000000;stroke-width:0.242524;stroke-linecap:butt;stroke-linejoin:miter;stroke-miterlimit:10.433;stroke-dasharray:none;stroke-opacity:1"
           id="path96" /></g><g
         id="g98"
         transform="matrix(1,0,0,0.988713,0,73.741249)"><path
           d="M 36.633,-16.759 H 51.66 l -0.594,-1.399 H 36.043 Z"
           style="fill:#000000;fill-opacity:1;fill-rule:nonzero;stroke:#000000;stroke-width:0.242524;stroke-linecap:butt;stroke-linejoin:miter;stroke-miterlimit:10.433;stroke-dasharray:none;stroke-opacity:1"
           id="path100" /></g><g
         id="g102"
         transform="matrix(1,0,0,0.988713,0,73.741249)"><path
           d="M 38.047,-13.429 H 53.07 l -0.515,-1.229 H 37.527 Z"
           style="fill:#000000;fill-opacity:1;fill-rule:nonzero;stroke:#000000;stroke-width:0.242524;stroke-linecap:butt;stroke-linejoin:miter;stroke-miterlimit:10.433;stroke-dasharray:none;stroke-opacity:1"
           id="path104" /></g><g
         id="g106"
         transform="matrix(1,0,0,0.988713,0,73.741249)"><path
           d="m 39.457,-10.106 h 19.895 l -0.793,-1.047 H 39.016 Z"
           style="fill:#000000;fill-opacity:1;fill-rule:nonzero;stroke:#000000;stroke-width:0.242524;stroke-linecap:butt;stroke-linejoin:miter;stroke-miterlimit:10.433;stroke-dasharray:none;stroke-opacity:1"
           id="path108" /></g><g
         id="g110"
         transform="matrix(1,0,0,0.988713,0,73.741249)"><path
           d="m 40.871,-6.776 h 20.988 l -0.66,-0.877 H 40.504 Z"
           style="fill:#000000;fill-opacity:1;fill-rule:nonzero;stroke:#000000;stroke-width:0.242524;stroke-linecap:butt;stroke-linejoin:miter;stroke-miterlimit:10.433;stroke-dasharray:none;stroke-opacity:1"
           id="path112" /></g><g
         id="g114"
         transform="matrix(1,0,0,0.988713,0,73.741249)"><path
           d="M 42.281,-3.445 H 64.367 L 63.84,-4.148 H 41.988 Z"
           style="fill:#000000;fill-opacity:1;fill-rule:nonzero;stroke:#000000;stroke-width:0.242524;stroke-linecap:butt;stroke-linejoin:miter;stroke-miterlimit:10.433;stroke-dasharray:none;stroke-opacity:1"
           id="path116" /></g><g
         id="g118"
         transform="matrix(1,0,0,0.988713,0,73.741249)"><path
           d="m 43.695,-0.122 h 23.18 L 66.48,-0.648 H 43.477 Z"
           style="fill:#000000;fill-opacity:1;fill-rule:nonzero;stroke:#000000;stroke-width:0.242524;stroke-linecap:butt;stroke-linejoin:miter;stroke-miterlimit:10.433;stroke-dasharray:none;stroke-opacity:1"
           id="path120" /></g><g
         id="g122"
         transform="matrix(1,0,0,0.988713,0,73.741249)"><path
           d="m 72.805,-43.376 h 15.058 l -2.109,-2.801 H 70.695 Z"
           style="fill:#000000;fill-opacity:1;fill-rule:nonzero;stroke:#000000;stroke-width:0.242524;stroke-linecap:butt;stroke-linejoin:miter;stroke-miterlimit:10.433;stroke-dasharray:none;stroke-opacity:1"
           id="path124" /></g><g
         id="g126"
         transform="matrix(1,0,0,0.988713,0,73.741249)"><path
           d="m 75.312,-40.054 h 15.063 l -1.98,-2.619 H 73.336 Z"
           style="fill:#000000;fill-opacity:1;fill-rule:nonzero;stroke:#000000;stroke-width:0.242524;stroke-linecap:butt;stroke-linejoin:miter;stroke-miterlimit:10.433;stroke-dasharray:none;stroke-opacity:1"
           id="path128" /></g><g
         id="g130"
         transform="matrix(1,0,0,0.988713,0,73.741249)"><path
           d="m 77.82,-36.723 h 15.063 l -1.852,-2.454 H 75.977 Z"
           style="fill:#000000;fill-opacity:1;fill-rule:nonzero;stroke:#000000;stroke-width:0.242524;stroke-linecap:butt;stroke-linejoin:miter;stroke-miterlimit:10.433;stroke-dasharray:none;stroke-opacity:1"
           id="path132" /></g><g
         id="g134"
         transform="matrix(1,0,0,0.988713,0,73.741249)"><path
           d="m 80.328,-33.393 h 15.059 l -1.715,-2.279 H 78.609 Z"
           style="fill:#000000;fill-opacity:1;fill-rule:nonzero;stroke:#000000;stroke-width:0.242524;stroke-linecap:butt;stroke-linejoin:miter;stroke-miterlimit:10.433;stroke-dasharray:none;stroke-opacity:1"
           id="path136" /></g><g
         id="g138"
         transform="matrix(1,0,0,0.988713,0,73.741249)"><path
           d="m 82.836,-30.07 h 15.059 l -1.583,-2.102 H 81.25 Z"
           style="fill:#000000;fill-opacity:1;fill-rule:nonzero;stroke:#000000;stroke-width:0.242524;stroke-linecap:butt;stroke-linejoin:miter;stroke-miterlimit:10.433;stroke-dasharray:none;stroke-opacity:1"
           id="path140" /></g><g
         id="g142"
         transform="matrix(1,0,0,0.988713,0,73.741249)"><path
           d="m 85.344,-26.739 h 15.062 l -1.453,-1.928 H 83.891 Z"
           style="fill:#000000;fill-opacity:1;fill-rule:nonzero;stroke:#000000;stroke-width:0.242524;stroke-linecap:butt;stroke-linejoin:miter;stroke-miterlimit:10.433;stroke-dasharray:none;stroke-opacity:1"
           id="path144" /></g><g
         id="g146"
         transform="matrix(1,0,0,0.988713,0,73.741249)"><path
           d="m 87.852,-23.413 h 15.058 l -1.32,-1.754 H 86.531 Z"
           style="fill:#000000;fill-opacity:1;fill-rule:nonzero;stroke:#000000;stroke-width:0.242524;stroke-linecap:butt;stroke-linejoin:miter;stroke-miterlimit:10.433;stroke-dasharray:none;stroke-opacity:1"
           id="path148" /></g><g
         id="g150"
         transform="matrix(1,0,0,0.988713,0,73.741249)"><path
           d="m 90.355,-20.086 h 15.063 l -1.188,-1.576 H 89.168 Z"
           style="fill:#000000;fill-opacity:1;fill-rule:nonzero;stroke:#000000;stroke-width:0.242524;stroke-linecap:butt;stroke-linejoin:miter;stroke-miterlimit:10.433;stroke-dasharray:none;stroke-opacity:1"
           id="path152" /></g><g
         id="g154"
         transform="matrix(1,0,0,0.988713,0,73.741249)"><path
           d="m 92.863,-16.759 h 15.063 l -1.055,-1.399 H 91.809 Z"
           style="fill:#000000;fill-opacity:1;fill-rule:nonzero;stroke:#000000;stroke-width:0.242524;stroke-linecap:butt;stroke-linejoin:miter;stroke-miterlimit:10.433;stroke-dasharray:none;stroke-opacity:1"
           id="path156" /></g><g
         id="g158"
         transform="matrix(1,0,0,0.988713,0,73.741249)"><path
           d="m 95.375,-13.429 h 15.055 l -0.918,-1.229 H 94.449 Z"
           style="fill:#000000;fill-opacity:1;fill-rule:nonzero;stroke:#000000;stroke-width:0.242524;stroke-linecap:butt;stroke-linejoin:miter;stroke-miterlimit:10.433;stroke-dasharray:none;stroke-opacity:1"
           id="path160" /></g><g
         id="g162"
         transform="matrix(1,0,0,0.988713,0,73.741249)"><path
           d="m 97.879,-10.106 h 15.055 l -0.786,-1.047 H 97.09 Z"
           style="fill:#000000;fill-opacity:1;fill-rule:nonzero;stroke:#000000;stroke-width:0.242524;stroke-linecap:butt;stroke-linejoin:miter;stroke-miterlimit:10.433;stroke-dasharray:none;stroke-opacity:1"
           id="path164" /></g><g
         id="g166"
         transform="matrix(1,0,0,0.988713,0,73.741249)"><path
           d="m 100.387,-6.776 h 15.062 l -0.66,-0.877 H 99.727 Z"
           style="fill:#000000;fill-opacity:1;fill-rule:nonzero;stroke:#000000;stroke-width:0.242524;stroke-linecap:butt;stroke-linejoin:miter;stroke-miterlimit:10.433;stroke-dasharray:none;stroke-opacity:1"
           id="path168" /></g><g
         id="g170"
         transform="matrix(1,0,0,0.988713,0,73.741249)"><path
           d="m 102.895,-3.445 h 15.058 l -0.527,-0.703 h -15.063 z"
           style="fill:#000000;fill-opacity:1;fill-rule:nonzero;stroke:#000000;stroke-width:0.242524;stroke-linecap:butt;stroke-linejoin:miter;stroke-miterlimit:10.433;stroke-dasharray:none;stroke-opacity:1"
           id="path172" /></g><g
         id="g174"
         transform="matrix(1,0,0,0.988713,0,73.741249)"><path
           d="m 105.402,-0.122 h 15.055 l -0.391,-0.526 h -15.062 z"
           style="fill:#000000;fill-opacity:1;fill-rule:nonzero;stroke:#000000;stroke-width:0.242524;stroke-linecap:butt;stroke-linejoin:miter;stroke-miterlimit:10.433;stroke-dasharray:none;stroke-opacity:1"
           id="path176" /></g><path
         d="M 124.375,73.581 V 28.085 h -14.637 v 5.957 H 94.242 l 6.754,8.863 h 8.742 V 54.37 Z"
         style="fill:#000000;fill-opacity:1;fill-rule:nonzero;stroke:none"
         id="path178" /><g
         id="g180"
         transform="matrix(1,0,0,0.988713,0,73.741249)"><path
           d="m 62.105,-11.643 0.114,-0.012 0.129,-0.024 0.152,-0.047 0.164,-0.067 0.176,-0.087 0.187,-0.107 0.196,-0.13 0.203,-0.154 0.203,-0.178 0.203,-0.202 0.199,-0.229 0.196,-0.257 0.187,-0.28 0.176,-0.312 0.164,-0.34 0.152,-0.371 0.129,-0.403 0.11,-0.435 0.05,-0.229 0.039,-0.237 0.036,-0.245 0.027,-0.253 0.019,-0.265 0.012,-0.268 0.008,-0.281 -0.004,-0.288 -0.012,-0.3 -0.019,-0.309 -0.028,-0.316 -0.039,-0.324 -0.046,-0.335 -0.059,-0.348 -0.067,-0.352 -0.078,-0.363 -0.089,-0.376 -0.098,-0.383 -0.113,-0.395 -0.125,-0.407 -0.133,-0.415 -0.149,-0.422 -0.16,-0.439 -0.176,-0.446 -0.187,-0.455 -0.203,-0.47 -0.215,-0.478 -0.227,-0.49 c -4.918,-10.256 -10.914,-9.49 -10.914,-9.49 h -7.429 l -8.68,-11.52 h 16.109 c 6.133,0.019 11.957,2.615 20.282,12.504 7.164,8.506 9.078,17.237 9.078,22.03 0,7.495 -2.387,11.521 -10.766,11.521 0,0 -8.684,-11.521 -8.684,-11.521 z"
           style="fill:#000000;fill-opacity:1;fill-rule:nonzero;stroke:#000000;stroke-width:0.242524;stroke-linecap:butt;stroke-linejoin:miter;stroke-miterlimit:10.433;stroke-dasharray:none;stroke-opacity:1"
           id="path182" /></g><path
         d="m 133.832,41.999 v 7.84 h -1.57 v -7.84 h 1.57"
         style="fill:#000000;fill-opacity:1;fill-rule:nonzero;stroke:none"
         id="path184" /><path
         d="m 142.309,41.999 v 7.84 h -1.547 v -3.313 c 0,-0.113 0,-0.25 0,-0.414 0.008,-0.168 0.011,-0.336 0.011,-0.507 0,-0.165 0,-0.321 0,-0.469 0.008,-0.141 0.012,-0.25 0.012,-0.324 -0.055,0.105 -0.137,0.238 -0.246,0.402 -0.105,0.172 -0.207,0.332 -0.305,0.48 l -2.777,4.145 h -1.5 v -7.84 h 1.547 v 3.449 c 0,0.114 -0.004,0.25 -0.012,0.414 0,0.164 0,0.332 0,0.496 0,0.172 -0.004,0.329 -0.012,0.469 0,0.149 0,0.262 0,0.336 0.051,-0.105 0.129,-0.242 0.235,-0.414 0.113,-0.164 0.219,-0.32 0.312,-0.469 l 2.879,-4.281 h 1.403"
         style="fill:#000000;fill-opacity:1;fill-rule:nonzero;stroke:none"
         id="path186" /><path
         d="m 150.059,44.374 c 0,0.426 -0.079,0.777 -0.235,1.055 -0.156,0.273 -0.363,0.504 -0.617,0.683 -0.246,0.176 -0.527,0.317 -0.84,0.414 -0.305,0.102 -0.617,0.192 -0.929,0.266 -0.313,0.078 -0.571,0.145 -0.774,0.203 -0.199,0.059 -0.359,0.125 -0.48,0.192 -0.122,0.066 -0.207,0.144 -0.258,0.234 -0.043,0.09 -0.067,0.195 -0.067,0.312 0,0.09 0.02,0.176 0.055,0.258 0.039,0.082 0.102,0.156 0.191,0.227 0.09,0.066 0.207,0.117 0.348,0.156 0.141,0.043 0.317,0.066 0.527,0.066 0.356,0 0.68,-0.07 0.961,-0.214 0.293,-0.133 0.567,-0.332 0.817,-0.594 l 1.133,1.098 c -0.371,0.39 -0.793,0.691 -1.254,0.91 -0.457,0.215 -0.989,0.324 -1.602,0.324 -0.387,0 -0.754,-0.055 -1.097,-0.156 -0.336,-0.106 -0.633,-0.258 -0.887,-0.461 -0.254,-0.196 -0.453,-0.434 -0.602,-0.715 -0.144,-0.285 -0.215,-0.606 -0.215,-0.965 0,-0.387 0.059,-0.715 0.18,-0.973 0.121,-0.261 0.289,-0.48 0.504,-0.652 0.215,-0.172 0.473,-0.312 0.773,-0.426 0.305,-0.109 0.637,-0.207 0.997,-0.289 0.374,-0.082 0.671,-0.16 0.894,-0.234 0.234,-0.078 0.41,-0.156 0.527,-0.238 0.129,-0.083 0.215,-0.172 0.258,-0.266 0.047,-0.09 0.067,-0.199 0.067,-0.328 0,-0.297 -0.11,-0.512 -0.336,-0.649 -0.215,-0.132 -0.559,-0.199 -1.028,-0.199 -0.382,0 -0.746,0.067 -1.09,0.199 -0.335,0.141 -0.64,0.375 -0.918,0.696 L 143.934,43.3 c 0.296,-0.442 0.714,-0.789 1.254,-1.043 0.535,-0.254 1.132,-0.379 1.792,-0.379 0.536,0 0.997,0.059 1.375,0.18 0.391,0.117 0.711,0.285 0.965,0.504 0.254,0.222 0.442,0.488 0.559,0.793 0.121,0.308 0.18,0.648 0.18,1.019"
         style="fill:#000000;fill-opacity:1;fill-rule:nonzero;stroke:none"
         id="path188" /><path
         d="m 156.988,48.296 v 1.543 h -6.07 v -1.543 h 2.25 v -6.297 h 1.57 v 6.297 h 2.25"
         style="fill:#000000;fill-opacity:1;fill-rule:nonzero;stroke:none"
         id="path190" /><path
         d="m 160.191,41.999 v 7.84 h -1.57 v -7.84 h 1.57"
         style="fill:#000000;fill-opacity:1;fill-rule:nonzero;stroke:none"
         id="path192" /><path
         d="m 167.883,48.296 v 1.543 h -6.071 v -1.543 h 2.25 v -6.297 h 1.571 v 6.297 h 2.25"
         style="fill:#000000;fill-opacity:1;fill-rule:nonzero;stroke:none"
         id="path194" /><path
         d="m 175.699,45.46 v 4.379 h -1.57 v -4.402 c 0,-0.633 -0.145,-1.129 -0.434,-1.489 -0.285,-0.359 -0.675,-0.535 -1.179,-0.535 -0.5,0 -0.891,0.18 -1.176,0.547 -0.281,0.367 -0.426,0.867 -0.426,1.5 v 4.379 h -1.566 v -4.402 c 0,-0.567 0.074,-1.075 0.222,-1.52 0.16,-0.441 0.375,-0.816 0.653,-1.121 0.273,-0.301 0.609,-0.527 0.996,-0.684 0.394,-0.156 0.828,-0.234 1.297,-0.234 1.004,0 1.781,0.309 2.343,0.93 0.559,0.625 0.84,1.511 0.84,2.652"
         style="fill:#000000;fill-opacity:1;fill-rule:nonzero;stroke:none"
         id="path196" /><path
         d="m 183.219,48.296 v 1.543 h -6.071 v -1.543 h 2.25 v -6.297 h 1.567 v 6.297 h 2.254"
         style="fill:#000000;fill-opacity:1;fill-rule:nonzero;stroke:none"
         id="path198" /><path
         d="m 193.586,48.304 v 1.535 h -5.609 v -7.84 h 1.566 v 3.305 h 2.363 v 1.523 h -2.363 v 1.477 h 4.043"
         style="fill:#000000;fill-opacity:1;fill-rule:nonzero;stroke:none"
         id="path200" /><path
         d="m 201.27,45.46 v 4.379 h -1.567 v -4.402 c 0,-0.633 -0.148,-1.129 -0.437,-1.489 -0.286,-0.359 -0.676,-0.535 -1.176,-0.535 -0.5,0 -0.895,0.18 -1.176,0.547 -0.285,0.367 -0.426,0.867 -0.426,1.5 v 4.379 h -1.57 v -4.402 c 0,-0.567 0.078,-1.075 0.227,-1.52 0.156,-0.441 0.371,-0.816 0.648,-1.121 0.277,-0.301 0.609,-0.527 0.996,-0.684 0.399,-0.156 0.828,-0.234 1.301,-0.234 1,0 1.781,0.309 2.34,0.93 0.562,0.625 0.84,1.511 0.84,2.652 m -1.086,5.746 c 0,0.121 -0.028,0.231 -0.079,0.336 -0.043,0.113 -0.109,0.207 -0.191,0.281 -0.074,0.082 -0.164,0.145 -0.269,0.192 -0.102,0.043 -0.211,0.066 -0.325,0.066 -0.238,0 -0.445,-0.086 -0.625,-0.258 -0.172,-0.172 -0.257,-0.379 -0.257,-0.617 0,-0.113 0.023,-0.219 0.066,-0.324 0.051,-0.106 0.117,-0.199 0.191,-0.281 0.082,-0.075 0.176,-0.137 0.278,-0.188 0.113,-0.047 0.23,-0.07 0.347,-0.07 0.235,0 0.434,0.086 0.606,0.258 0.172,0.171 0.258,0.375 0.258,0.605 m -2.418,0 c 0,0.121 -0.028,0.231 -0.078,0.336 -0.047,0.113 -0.11,0.207 -0.192,0.281 -0.074,0.082 -0.164,0.145 -0.269,0.192 -0.106,0.043 -0.215,0.066 -0.336,0.066 -0.118,0 -0.231,-0.023 -0.336,-0.066 -0.106,-0.047 -0.2,-0.11 -0.282,-0.192 -0.074,-0.074 -0.136,-0.168 -0.187,-0.281 -0.047,-0.105 -0.07,-0.215 -0.07,-0.336 0,-0.23 0.086,-0.434 0.257,-0.605 0.172,-0.172 0.379,-0.258 0.618,-0.258 0.238,0 0.445,0.086 0.617,0.258 0.172,0.171 0.258,0.375 0.258,0.605"
         style="fill:#000000;fill-opacity:1;fill-rule:nonzero;stroke:none"
         id="path202" /><path
         d="m 209.574,41.999 -1.5,3.047 c 0.5,0.195 0.871,0.476 1.117,0.851 0.254,0.383 0.383,0.868 0.383,1.458 0,0.417 -0.07,0.781 -0.215,1.085 -0.14,0.313 -0.336,0.575 -0.582,0.786 -0.246,0.207 -0.535,0.359 -0.863,0.457 -0.32,0.105 -0.668,0.156 -1.039,0.156 h -3.652 v -7.84 h 1.566 v 2.824 h 1.582 l 1.399,-2.824 h 1.804 m -1.613,5.32 c 0,-0.679 -0.375,-1.019 -1.121,-1.019 h -2.051 v 2.015 h 2.051 c 0.351,0 0.625,-0.078 0.816,-0.234 0.203,-0.148 0.305,-0.402 0.305,-0.762"
         style="fill:#000000;fill-opacity:1;fill-rule:nonzero;stroke:none"
         id="path204" /><path
         d="m 138.5,31.921 c 0,0.715 -0.098,1.32 -0.289,1.812 -0.195,0.5 -0.469,0.907 -0.82,1.223 -0.34,0.313 -0.754,0.535 -1.231,0.672 -0.476,0.141 -0.996,0.211 -1.555,0.211 h -2.453 v -7.84 h 2.34 c 0.508,0 1,0.074 1.477,0.227 0.48,0.148 0.906,0.379 1.277,0.691 0.383,0.324 0.684,0.73 0.906,1.223 0.235,0.5 0.348,1.093 0.348,1.781 m -1.613,0 c 0,-0.359 -0.047,-0.688 -0.145,-0.988 -0.097,-0.289 -0.242,-0.539 -0.437,-0.75 -0.192,-0.207 -0.442,-0.371 -0.75,-0.493 -0.297,-0.109 -0.653,-0.168 -1.063,-0.168 h -0.773 v 4.793 h 0.828 c 0.828,0 1.426,-0.199 1.793,-0.601 0.367,-0.399 0.547,-0.996 0.547,-1.793"
         style="fill:#000000;fill-opacity:1;fill-rule:nonzero;stroke:none"
         id="path206" /><path
         d="m 146.641,27.999 -2.977,7.84 h -1.523 l -3.004,-7.84 h 1.679 l 0.618,1.75 h 2.867 l 0.617,-1.75 h 1.723 m -2.879,3.238 h -1.789 l 0.504,1.422 c 0.082,0.231 0.156,0.457 0.222,0.672 0.074,0.215 0.129,0.399 0.168,0.551 0.039,-0.152 0.09,-0.336 0.156,-0.551 0.075,-0.215 0.153,-0.441 0.235,-0.672 l 0.504,-1.422"
         style="fill:#000000;fill-opacity:1;fill-rule:nonzero;stroke:none"
         id="path208" /><path
         d="m 152.594,34.296 v 1.543 h -6.071 v -1.543 h 2.25 v -6.297 h 1.567 v 6.297 h 2.254"
         style="fill:#000000;fill-opacity:1;fill-rule:nonzero;stroke:none"
         id="path210" /><path
         d="m 159.723,27.999 v 1.535 h -4.043 v 1.895 h 2.254 v 1.523 h -2.254 v 1.352 h 3.875 v 1.535 h -5.442 v -7.84 h 5.61"
         style="fill:#000000;fill-opacity:1;fill-rule:nonzero;stroke:none"
         id="path212" /><path
         d="m 167.75,27.999 v 7.84 h -1.547 v -3.313 c 0,-0.113 0,-0.25 0,-0.414 0.008,-0.168 0.012,-0.336 0.012,-0.507 0,-0.165 0,-0.321 0,-0.469 0.008,-0.141 0.012,-0.25 0.012,-0.324 -0.055,0.105 -0.137,0.238 -0.247,0.402 -0.105,0.172 -0.207,0.332 -0.304,0.48 l -2.778,4.145 h -1.5 v -7.84 h 1.543 v 3.449 c 0,0.114 0,0.25 -0.007,0.414 0,0.164 0,0.332 0,0.496 0,0.172 -0.004,0.329 -0.012,0.469 0,0.149 0,0.262 0,0.336 0.051,-0.105 0.129,-0.242 0.234,-0.414 0.114,-0.164 0.215,-0.32 0.313,-0.469 l 2.879,-4.281 h 1.402"
         style="fill:#000000;fill-opacity:1;fill-rule:nonzero;stroke:none"
         id="path214" /><path
         d="m 175.32,34.296 v 1.543 h -6.07 v -1.543 h 2.25 v -6.297 h 1.57 v 6.297 h 2.25"
         style="fill:#000000;fill-opacity:1;fill-rule:nonzero;stroke:none"
         id="path216" /><path
         d="m 182.453,27.999 v 1.535 h -4.043 v 1.895 h 2.25 v 1.523 h -2.25 v 1.352 h 3.875 v 1.535 h -5.445 v -7.84 h 5.613"
         style="fill:#000000;fill-opacity:1;fill-rule:nonzero;stroke:none"
         id="path218" /><path
         d="m 189.691,34.226 c -0.121,0.254 -0.269,0.488 -0.449,0.695 -0.172,0.219 -0.379,0.398 -0.617,0.551 -0.23,0.156 -0.496,0.273 -0.793,0.355 -0.301,0.09 -0.637,0.137 -1.008,0.137 -0.515,0 -0.988,-0.102 -1.414,-0.305 -0.426,-0.191 -0.789,-0.469 -1.098,-0.828 -0.304,-0.351 -0.542,-0.777 -0.714,-1.277 -0.172,-0.492 -0.258,-1.035 -0.258,-1.633 0,-0.621 0.082,-1.18 0.246,-1.68 0.164,-0.492 0.394,-0.914 0.695,-1.265 0.305,-0.352 0.668,-0.625 1.086,-0.821 0.418,-0.183 0.883,-0.277 1.399,-0.277 0.718,0 1.312,0.152 1.781,0.457 0.48,0.316 0.851,0.75 1.121,1.312 l -1.32,0.782 c -0.211,-0.348 -0.43,-0.602 -0.664,-0.762 -0.223,-0.156 -0.512,-0.234 -0.872,-0.234 -0.292,0 -0.554,0.062 -0.785,0.191 -0.23,0.125 -0.429,0.301 -0.593,0.527 -0.157,0.223 -0.278,0.485 -0.36,0.782 -0.082,0.308 -0.121,0.636 -0.121,0.988 0,0.363 0.039,0.695 0.121,0.996 0.082,0.305 0.203,0.566 0.36,0.785 0.156,0.223 0.351,0.395 0.582,0.516 0.23,0.125 0.492,0.187 0.785,0.187 0.359,0 0.648,-0.074 0.875,-0.222 0.23,-0.149 0.418,-0.36 0.558,-0.629 l 1.457,0.672"
         style="fill:#000000;fill-opacity:1;fill-rule:nonzero;stroke:none"
         id="path220" /><path
         d="m 197.609,27.999 v 7.84 h -1.57 v -3 h -3.215 v 3 h -1.566 v -7.84 h 1.566 v 3.293 h 3.215 v -3.293 h 1.57"
         style="fill:#000000;fill-opacity:1;fill-rule:nonzero;stroke:none"
         id="path222" /><path
         d="m 205.965,27.999 v 7.84 h -1.547 v -3.313 c 0,-0.113 0,-0.25 0,-0.414 0.008,-0.168 0.012,-0.336 0.012,-0.507 0,-0.165 0,-0.321 0,-0.469 0.008,-0.141 0.011,-0.25 0.011,-0.324 -0.054,0.105 -0.136,0.238 -0.246,0.402 -0.105,0.172 -0.207,0.332 -0.304,0.48 l -2.778,4.145 h -1.5 v -7.84 h 1.547 v 3.449 c 0,0.114 -0.004,0.25 -0.012,0.414 0,0.164 0,0.332 0,0.496 0,0.172 -0.003,0.329 -0.011,0.469 0,0.149 0,0.262 0,0.336 0.051,-0.105 0.129,-0.242 0.234,-0.414 0.113,-0.164 0.219,-0.32 0.313,-0.469 l 2.878,-4.281 h 1.403"
         style="fill:#000000;fill-opacity:1;fill-rule:nonzero;stroke:none"
         id="path224" /><path
         d="m 209.648,27.999 v 7.84 h -1.566 v -7.84 h 1.566"
         style="fill:#000000;fill-opacity:1;fill-rule:nonzero;stroke:none"
         id="path226" /><path
         d="m 218.609,27.999 -2.879,5.129 2.297,2.711 h -1.894 l -2.195,-2.676 c -0.051,-0.066 -0.11,-0.137 -0.168,-0.211 -0.059,-0.07 -0.122,-0.14 -0.18,-0.215 -0.051,-0.074 -0.106,-0.144 -0.156,-0.211 -0.047,-0.062 -0.082,-0.113 -0.114,-0.16 0,0.063 0,0.149 0,0.258 0.008,0.113 0.012,0.231 0.012,0.348 0.008,0.121 0.012,0.234 0.012,0.347 0,0.121 0,0.219 0,0.293 v 2.227 h -1.567 v -7.84 h 1.567 v 2.309 l 1.254,1.476 2.129,-3.785 h 1.882"
         style="fill:#000000;fill-opacity:1;fill-rule:nonzero;stroke:none"
         id="path228" /><path
         d="m 229.379,31.46 v 4.379 h -1.567 v -4.402 c 0,-0.633 -0.148,-1.129 -0.437,-1.489 -0.285,-0.359 -0.676,-0.535 -1.176,-0.535 -0.5,0 -0.894,0.18 -1.176,0.547 -0.285,0.367 -0.425,0.867 -0.425,1.5 v 4.379 h -1.571 v -4.402 c 0,-0.567 0.078,-1.075 0.227,-1.52 0.156,-0.441 0.371,-0.816 0.648,-1.121 0.278,-0.301 0.61,-0.527 0.996,-0.684 0.399,-0.156 0.829,-0.234 1.301,-0.234 1,0 1.781,0.309 2.34,0.93 0.563,0.625 0.84,1.511 0.84,2.652"
         style="fill:#000000;fill-opacity:1;fill-rule:nonzero;stroke:none"
         id="path230" /><path
         d="m 237.684,27.999 v 7.84 h -1.547 v -3.313 c 0,-0.113 0,-0.25 0,-0.414 0.008,-0.168 0.011,-0.336 0.011,-0.507 0,-0.165 0,-0.321 0,-0.469 0.008,-0.141 0.012,-0.25 0.012,-0.324 -0.055,0.105 -0.137,0.238 -0.246,0.402 -0.105,0.172 -0.207,0.332 -0.305,0.48 l -2.777,4.145 h -1.5 v -7.84 h 1.547 v 3.449 c 0,0.114 -0.004,0.25 -0.012,0.414 0,0.164 0,0.332 0,0.496 0,0.172 -0.004,0.329 -0.012,0.469 0,0.149 0,0.262 0,0.336 0.051,-0.105 0.129,-0.242 0.235,-0.414 0.113,-0.164 0.219,-0.32 0.312,-0.469 l 2.879,-4.281 h 1.403"
         style="fill:#000000;fill-opacity:1;fill-rule:nonzero;stroke:none"
         id="path232" /><path
         d="m 246.039,31.921 c 0,0.715 -0.098,1.32 -0.293,1.812 -0.191,0.5 -0.465,0.907 -0.816,1.223 -0.344,0.313 -0.754,0.535 -1.231,0.672 -0.48,0.141 -1,0.211 -1.558,0.211 h -2.453 v -7.84 h 2.339 c 0.508,0 1.004,0.074 1.481,0.227 0.476,0.148 0.902,0.379 1.277,0.691 0.379,0.324 0.684,0.73 0.906,1.223 0.231,0.5 0.348,1.093 0.348,1.781 m -1.613,0 c 0,-0.359 -0.047,-0.688 -0.145,-0.988 -0.097,-0.289 -0.242,-0.539 -0.437,-0.75 -0.196,-0.207 -0.446,-0.371 -0.75,-0.493 -0.301,-0.109 -0.653,-0.168 -1.067,-0.168 h -0.769 v 4.793 h 0.828 c 0.828,0 1.426,-0.199 1.793,-0.601 0.363,-0.399 0.547,-0.996 0.547,-1.793"
         style="fill:#000000;fill-opacity:1;fill-rule:nonzero;stroke:none"
         id="path234" /><path
         d="m 138.984,13.999 -2.879,5.129 2.297,2.711 h -1.894 l -2.196,-2.676 c -0.05,-0.066 -0.109,-0.137 -0.167,-0.211 -0.059,-0.07 -0.122,-0.14 -0.18,-0.215 -0.051,-0.074 -0.106,-0.144 -0.156,-0.211 -0.047,-0.062 -0.082,-0.113 -0.114,-0.16 0,0.063 0,0.149 0,0.258 0.008,0.113 0.012,0.231 0.012,0.348 0.008,0.121 0.012,0.234 0.012,0.347 0,0.121 0,0.219 0,0.293 v 2.227 h -1.567 v -7.84 h 1.567 v 2.309 l 1.254,1.476 2.129,-3.785 h 1.882"
         style="fill:#000000;fill-opacity:1;fill-rule:nonzero;stroke:none"
         id="path236" /><path
         d="m 146.238,17.933 c 0,0.632 -0.086,1.195 -0.258,1.691 -0.164,0.5 -0.402,0.922 -0.707,1.266 -0.296,0.347 -0.66,0.613 -1.085,0.793 -0.418,0.187 -0.883,0.281 -1.391,0.281 -0.512,0 -0.985,-0.094 -1.41,-0.281 -0.426,-0.188 -0.789,-0.453 -1.098,-0.805 -0.305,-0.344 -0.543,-0.766 -0.715,-1.266 -0.164,-0.5 -0.246,-1.07 -0.246,-1.703 0,-0.637 0.082,-1.203 0.246,-1.703 0.172,-0.492 0.406,-0.914 0.703,-1.266 0.309,-0.343 0.668,-0.609 1.086,-0.793 0.426,-0.179 0.899,-0.269 1.414,-0.269 0.508,0 0.973,0.094 1.399,0.277 0.426,0.188 0.793,0.453 1.097,0.797 0.305,0.352 0.543,0.778 0.707,1.278 0.172,0.5 0.258,1.066 0.258,1.703 m -1.613,-0.024 c 0,-0.801 -0.168,-1.41 -0.504,-1.836 -0.328,-0.426 -0.769,-0.64 -1.324,-0.64 -0.551,0 -1,0.218 -1.344,0.652 -0.344,0.43 -0.515,1.047 -0.515,1.848 0,0.797 0.167,1.41 0.496,1.836 0.336,0.425 0.777,0.636 1.332,0.636 0.55,0 1,-0.215 1.343,-0.648 0.344,-0.434 0.516,-1.051 0.516,-1.848"
         style="fill:#000000;fill-opacity:1;fill-rule:nonzero;stroke:none"
         id="path238" /><path
         d="m 155.148,13.999 v 7.84 h -1.543 l -1.582,-3.551 c -0.101,-0.223 -0.203,-0.461 -0.3,-0.715 -0.098,-0.246 -0.172,-0.445 -0.223,-0.593 -0.023,0.066 -0.059,0.152 -0.102,0.257 -0.039,0.106 -0.082,0.215 -0.136,0.336 -0.043,0.117 -0.094,0.239 -0.145,0.36 -0.051,0.125 -0.105,0.246 -0.156,0.355 l -1.637,3.551 h -1.512 v -7.84 h 1.536 v 2.879 c 0,0.105 -0.004,0.238 -0.012,0.402 0,0.164 0,0.332 0,0.504 0,0.172 -0.004,0.332 -0.012,0.485 0,0.148 0,0.261 0,0.336 0.063,-0.153 0.141,-0.348 0.235,-0.594 0.105,-0.246 0.211,-0.485 0.316,-0.707 l 1.59,-3.485 1.59,3.485 c 0.105,0.222 0.207,0.461 0.3,0.707 0.106,0.246 0.188,0.441 0.25,0.594 0,-0.075 -0.003,-0.188 -0.011,-0.336 0,-0.153 0,-0.313 0,-0.485 0,-0.172 -0.004,-0.34 -0.012,-0.504 0,-0.164 0,-0.297 0,-0.402 v -2.879 h 1.566"
         style="fill:#000000;fill-opacity:1;fill-rule:nonzero;stroke:none"
         id="path240" /><path
         d="m 164.512,13.999 v 7.84 h -1.547 l -1.578,-3.551 c -0.106,-0.223 -0.203,-0.461 -0.301,-0.715 -0.098,-0.246 -0.172,-0.445 -0.227,-0.593 -0.019,0.066 -0.054,0.152 -0.097,0.257 -0.039,0.106 -0.086,0.215 -0.137,0.336 -0.043,0.117 -0.094,0.239 -0.145,0.36 -0.054,0.125 -0.105,0.246 -0.156,0.355 l -1.636,3.551 h -1.512 v -7.84 h 1.535 v 2.879 c 0,0.105 -0.004,0.238 -0.012,0.402 0,0.164 0,0.332 0,0.504 0,0.172 -0.004,0.332 -0.011,0.485 0,0.148 0,0.261 0,0.336 0.058,-0.153 0.136,-0.348 0.234,-0.594 0.105,-0.246 0.211,-0.485 0.316,-0.707 l 1.59,-3.485 1.59,3.485 c 0.105,0.222 0.203,0.461 0.301,0.707 0.105,0.246 0.187,0.441 0.246,0.594 0,-0.075 -0.004,-0.188 -0.012,-0.336 0,-0.153 0,-0.313 0,-0.485 0,-0.172 0,-0.34 -0.008,-0.504 0,-0.164 0,-0.297 0,-0.402 v -2.879 h 1.567"
         style="fill:#000000;fill-opacity:1;fill-rule:nonzero;stroke:none"
         id="path242" /><path
         d="m 172.832,17.46 v 4.379 h -1.566 v -4.402 c 0,-0.633 -0.149,-1.129 -0.438,-1.489 -0.285,-0.359 -0.676,-0.535 -1.176,-0.535 -0.5,0 -0.894,0.18 -1.175,0.547 -0.286,0.367 -0.426,0.867 -0.426,1.5 v 4.379 h -1.571 v -4.402 c 0,-0.567 0.079,-1.075 0.227,-1.52 0.156,-0.441 0.371,-0.816 0.648,-1.121 0.278,-0.301 0.61,-0.527 0.997,-0.684 0.398,-0.156 0.828,-0.234 1.3,-0.234 1,0 1.782,0.309 2.34,0.93 0.563,0.625 0.84,1.511 0.84,2.652"
         style="fill:#000000;fill-opacity:1;fill-rule:nonzero;stroke:none"
         id="path244" /><path
         d="m 181.137,13.999 v 7.84 h -1.547 v -3.313 c 0,-0.113 0,-0.25 0,-0.414 0.008,-0.168 0.012,-0.336 0.012,-0.507 0,-0.165 0,-0.321 0,-0.469 0.007,-0.141 0.011,-0.25 0.011,-0.324 -0.054,0.105 -0.136,0.238 -0.246,0.402 -0.105,0.172 -0.207,0.332 -0.305,0.48 l -2.777,4.145 h -1.5 v -7.84 h 1.547 v 3.449 c 0,0.114 -0.004,0.25 -0.012,0.414 0,0.164 0,0.332 0,0.496 0,0.172 -0.004,0.329 -0.011,0.469 0,0.149 0,0.262 0,0.336 0.05,-0.105 0.129,-0.242 0.234,-0.414 0.113,-0.164 0.219,-0.32 0.312,-0.469 l 2.879,-4.281 h 1.403"
         style="fill:#000000;fill-opacity:1;fill-rule:nonzero;stroke:none"
         id="path246" /><path
         d="m 184.82,13.999 v 7.84 h -1.566 v -7.84 h 1.566"
         style="fill:#000000;fill-opacity:1;fill-rule:nonzero;stroke:none"
         id="path248" /><path
         d="m 193.781,13.999 -2.879,5.129 2.297,2.711 h -1.894 l -2.196,-2.676 c -0.05,-0.066 -0.109,-0.137 -0.168,-0.211 -0.058,-0.07 -0.121,-0.14 -0.179,-0.215 -0.051,-0.074 -0.106,-0.144 -0.157,-0.211 -0.046,-0.062 -0.082,-0.113 -0.113,-0.16 0,0.063 0,0.149 0,0.258 0.008,0.113 0.012,0.231 0.012,0.348 0.008,0.121 0.012,0.234 0.012,0.347 0,0.121 0,0.219 0,0.293 v 2.227 h -1.567 v -7.84 h 1.567 v 2.309 l 1.254,1.476 2.128,-3.785 h 1.883"
         style="fill:#000000;fill-opacity:1;fill-rule:nonzero;stroke:none"
         id="path250" /><path
         d="m 201.965,13.999 -2.981,7.84 h -1.523 l -3,-7.84 h 1.68 l 0.613,1.75 h 2.867 l 0.617,-1.75 h 1.727 m -2.879,3.238 h -1.793 l 0.504,1.422 c 0.082,0.231 0.156,0.457 0.223,0.672 0.078,0.215 0.132,0.399 0.168,0.551 0.039,-0.152 0.089,-0.336 0.16,-0.551 0.074,-0.215 0.152,-0.441 0.234,-0.672 l 0.504,-1.422"
         style="fill:#000000;fill-opacity:1;fill-rule:nonzero;stroke:none"
         id="path252" /><path
         d="m 207.914,20.296 v 1.543 h -6.07 v -1.543 h 2.25 v -6.297 h 1.57 v 6.297 h 2.25"
         style="fill:#000000;fill-opacity:1;fill-rule:nonzero;stroke:none"
         id="path254" /><path
         d="m 211.113,13.999 v 7.84 h -1.566 v -7.84 h 1.566"
         style="fill:#000000;fill-opacity:1;fill-rule:nonzero;stroke:none"
         id="path256" /><path
         d="m 219.715,17.933 c 0,0.632 -0.086,1.195 -0.258,1.691 -0.164,0.5 -0.398,0.922 -0.707,1.266 -0.297,0.347 -0.66,0.613 -1.086,0.793 -0.418,0.187 -0.879,0.281 -1.387,0.281 -0.515,0 -0.984,-0.094 -1.41,-0.281 -0.426,-0.188 -0.793,-0.453 -1.097,-0.805 -0.309,-0.344 -0.547,-0.766 -0.719,-1.266 -0.164,-0.5 -0.246,-1.07 -0.246,-1.703 0,-0.637 0.082,-1.203 0.246,-1.703 0.172,-0.492 0.406,-0.914 0.707,-1.266 0.304,-0.343 0.668,-0.609 1.086,-0.793 0.426,-0.179 0.894,-0.269 1.41,-0.269 0.508,0 0.976,0.094 1.398,0.277 0.426,0.188 0.793,0.453 1.098,0.797 0.309,0.352 0.543,0.778 0.707,1.278 0.172,0.5 0.258,1.066 0.258,1.703 m -1.613,-0.024 c 0,-0.801 -0.168,-1.41 -0.504,-1.836 -0.328,-0.426 -0.77,-0.64 -1.321,-0.64 -0.554,0 -1,0.218 -1.343,0.652 -0.344,0.43 -0.516,1.047 -0.516,1.848 0,0.797 0.164,1.41 0.492,1.836 0.336,0.425 0.781,0.636 1.332,0.636 0.555,0 1,-0.215 1.344,-0.648 0.344,-0.434 0.516,-1.051 0.516,-1.848"
         style="fill:#000000;fill-opacity:1;fill-rule:nonzero;stroke:none"
         id="path258" /><path
         d="m 227.641,13.999 v 7.84 h -1.543 v -3.313 c 0,-0.113 0,-0.25 0,-0.414 0.007,-0.168 0.011,-0.336 0.011,-0.507 0,-0.165 0,-0.321 0,-0.469 0.004,-0.141 0.008,-0.25 0.008,-0.324 -0.051,0.105 -0.133,0.238 -0.246,0.402 -0.101,0.172 -0.203,0.332 -0.301,0.48 l -2.777,4.145 h -1.5 v -7.84 h 1.543 v 3.449 c 0,0.114 -0.004,0.25 -0.012,0.414 0,0.164 0,0.332 0,0.496 0,0.172 -0.004,0.329 -0.008,0.469 0,0.149 0,0.262 0,0.336 0.051,-0.105 0.129,-0.242 0.235,-0.414 0.109,-0.164 0.215,-0.32 0.312,-0.469 l 2.879,-4.281 h 1.399"
         style="fill:#000000;fill-opacity:1;fill-rule:nonzero;stroke:none"
         id="path260" /><path
         d="m 235.395,16.374 c 0,0.426 -0.079,0.777 -0.239,1.055 -0.156,0.273 -0.359,0.504 -0.613,0.683 -0.246,0.176 -0.527,0.317 -0.84,0.414 -0.308,0.102 -0.617,0.192 -0.93,0.266 -0.316,0.078 -0.57,0.145 -0.773,0.203 -0.203,0.059 -0.363,0.125 -0.48,0.192 -0.122,0.066 -0.208,0.144 -0.258,0.234 -0.047,0.09 -0.071,0.195 -0.071,0.312 0,0.09 0.02,0.176 0.059,0.258 0.035,0.082 0.102,0.156 0.191,0.227 0.09,0.066 0.204,0.117 0.344,0.156 0.145,0.043 0.32,0.066 0.527,0.066 0.36,0 0.68,-0.07 0.965,-0.214 0.289,-0.133 0.563,-0.332 0.817,-0.594 l 1.133,1.098 c -0.375,0.39 -0.793,0.691 -1.254,0.91 -0.457,0.215 -0.993,0.324 -1.602,0.324 -0.391,0 -0.758,-0.055 -1.098,-0.156 -0.335,-0.106 -0.632,-0.258 -0.886,-0.461 -0.254,-0.196 -0.457,-0.434 -0.606,-0.715 -0.14,-0.285 -0.211,-0.606 -0.211,-0.965 0,-0.387 0.059,-0.715 0.18,-0.973 0.117,-0.261 0.285,-0.48 0.504,-0.652 0.215,-0.172 0.473,-0.312 0.769,-0.426 0.309,-0.109 0.641,-0.207 1,-0.289 0.372,-0.082 0.672,-0.16 0.895,-0.234 0.23,-0.078 0.406,-0.156 0.527,-0.238 0.125,-0.083 0.211,-0.172 0.258,-0.266 0.043,-0.09 0.067,-0.199 0.067,-0.328 0,-0.297 -0.114,-0.512 -0.336,-0.649 -0.219,-0.132 -0.559,-0.199 -1.032,-0.199 -0.379,0 -0.742,0.067 -1.086,0.199 -0.336,0.141 -0.64,0.375 -0.918,0.696 L 229.266,15.3 c 0.3,-0.442 0.718,-0.789 1.254,-1.043 0.539,-0.254 1.136,-0.379 1.792,-0.379 0.54,0 0.997,0.059 1.379,0.18 0.387,0.117 0.707,0.285 0.961,0.504 0.254,0.222 0.442,0.488 0.563,0.793 0.117,0.308 0.18,0.648 0.18,1.019"
         style="fill:#000000;fill-opacity:1;fill-rule:nonzero;stroke:none"
         id="path262" /><path
         d="m 239.68,17.292 v 1.547 h -3.215 v -1.547 h 3.215"
         style="fill:#000000;fill-opacity:1;fill-rule:nonzero;stroke:none"
         id="path264" /><path
         d="m 138.5,-0.001 v 7.84 h -1.543 V 4.526 c 0,-0.113 0,-0.25 0,-0.414 0.008,-0.168 0.012,-0.336 0.012,-0.507 0,-0.165 0,-0.321 0,-0.469 0.004,-0.141 0.008,-0.25 0.008,-0.324 -0.051,0.105 -0.133,0.238 -0.247,0.402 -0.101,0.172 -0.203,0.332 -0.3,0.48 l -2.778,4.145 h -1.5 v -7.84 h 1.543 v 3.449 c 0,0.114 -0.004,0.25 -0.011,0.414 0,0.164 0,0.332 0,0.496 0,0.172 -0.004,0.329 -0.008,0.469 0,0.149 0,0.262 0,0.336 0.051,-0.105 0.129,-0.242 0.234,-0.414 0.11,-0.164 0.215,-0.32 0.313,-0.469 l 2.879,-4.281 h 1.398"
         style="fill:#000000;fill-opacity:1;fill-rule:nonzero;stroke:none"
         id="path266" /><path
         d="m 146.117,-0.001 v 1.535 h -4.043 v 1.895 h 2.254 v 1.523 h -2.254 v 1.352 h 3.875 v 1.535 h -5.441 v -7.84 h 5.609"
         style="fill:#000000;fill-opacity:1;fill-rule:nonzero;stroke:none"
         id="path268" /><path
         d="m 153.359,6.296 v 1.543 h -6.07 V 6.296 h 2.25 v -6.297 h 1.566 v 6.297 h 2.254"
         style="fill:#000000;fill-opacity:1;fill-rule:nonzero;stroke:none"
         id="path270" /><path
         d="m 160.531,-0.001 v 1.434 h -2.699 c -0.113,0 -0.246,0 -0.402,0 -0.153,0 -0.301,-0.004 -0.45,-0.012 -0.148,0 -0.292,-0.004 -0.425,-0.008 -0.129,0 -0.231,0 -0.313,0 0.051,0.051 0.113,0.117 0.188,0.199 0.078,0.082 0.156,0.172 0.238,0.27 0.09,0.098 0.176,0.195 0.258,0.289 0.082,0.098 0.152,0.184 0.211,0.258 l 3.336,4.023 V 7.839 H 154.57 V 6.405 h 2.453 c 0.114,0 0.247,0 0.395,0 0.156,0 0.309,0 0.457,0 0.152,0.008 0.293,0.012 0.426,0.012 0.137,0.008 0.238,0.012 0.316,0.012 C 158.562,6.378 158.5,6.308 158.426,6.226 158.352,6.144 158.27,6.054 158.18,5.96 158.098,5.862 158.016,5.765 157.934,5.667 157.852,5.569 157.777,5.483 157.719,5.409 L 154.348,1.39 v -1.391 h 6.183"
         style="fill:#000000;fill-opacity:1;fill-rule:nonzero;stroke:none"
         id="path272" /><path
         d="m 167.906,-0.001 v 1.535 h -4.043 v 1.895 h 2.25 v 1.523 h -2.25 v 1.352 h 3.875 v 1.535 h -5.445 v -7.84 h 5.613"
         style="fill:#000000;fill-opacity:1;fill-rule:nonzero;stroke:none"
         id="path274" /></g></g></svg>
